# xmcd CD database file
#
# Track frame offsets:
#	150
#	10901
#	38656
#	46787
#	78823
#	86217
#	111925
#	150127
#	184780
#	188306
#	217590
#	241598
#
# Disc length: 3335 seconds
#
# Revision: 1
# Processed by: cddbd v1.5.2PL0 Copyright (c) Steve Scherf et al.
# Submitted via: CDex 1.51
#
DISCID=750d050c
DTITLE=Alexandra Lehmler Quintett -  Die Welt von unten gesehen
DYEAR=2008
DGENRE=Jazz
TTITLE0=La Revolte
TTITLE1=A Cowboy's Song
TTITLE2=Paris Triste - Intro
TTITLE3=Paris Triste
TTITLE4=Miniatur I
TTITLE5=Die Welt von unten gesehen
TTITLE6=Frieda
TTITLE7=Debout
TTITLE8=Miniatur II
TTITLE9=Let's leave it all behind
TTITLE10=Guy Moquet
TTITLE11=La Revolte - Reprise
EXTD=YEAR: 2008
EXTT0=
EXTT1=
EXTT2=
EXTT3=
EXTT4=
EXTT5=
EXTT6=
EXTT7=
EXTT8=
EXTT9=
EXTT10=
EXTT11=
PLAYORDER=
